<svg id="Capa_1" data-name="Capa 1" xmlns="http://www.w3.org/2000/svg" viewBox="0 0 5.6 5"><path d="M5.6,1.84A.71.71,0,0,1,5.5,2C5,2.49,4.48,3,4,3.52a.21.21,0,0,1-.17.08.2.2,0,0,1-.19-.21V2.6h0c-.41,0-.81,0-1.21,0a2.54,2.54,0,0,0-.82.16,1.3,1.3,0,0,0-.81,1,3.05,3.05,0,0,0-.06.8l0,.32C.7,4.93.68,5,.63,5A.1.1,0,0,1,.5,4.93C.42,4.75.33,4.56.26,4.38A4.12,4.12,0,0,1,0,3.6,2.58,2.58,0,0,1,0,3,2.65,2.65,0,0,1,.15,2.3a1.71,1.71,0,0,1,.67-.83A2.77,2.77,0,0,1,2,1.07,6.41,6.41,0,0,1,3,1H3.6V.21A.19.19,0,0,1,3.84,0,.17.17,0,0,1,4,.07C4.48.59,5,1.12,5.53,1.65a.41.41,0,0,1,.07.11Z"/></svg>